name analog
datacolumns 19
datarows 46
range 0.0 0.0225
endheader
time	ground_force_vx	ground_force_vy	ground_force_vz	ground_force_px	ground_force_py	ground_force_pz	l_ground_force_vx	l_ground_force_vy	l_ground_force_vz	l_ground_force_px	l_ground_force_py	l_ground_force_pz	ground_torque_x	ground_torque_y	ground_torque_z	l_ground_torque_x	l_ground_torque_y	l_ground_torque_z
0.0	-0.0	-0.0	-0.0	3.295727014541626	23.946277618408203	-476.3417053222656	-3.0310842990875244	-24.80354118347168	-141.6000213623047	-0.0	-0.0	-0.0	-0.0	-0.0	-0.0	34957.33984375	4480.095703125	-1677.8673095703125
0.0005	-0.0	-0.0	-0.0	3.321155548095703	24.01107788085937	-474.9689636230469	-2.9521360397338867	-25.284574508666992	-142.04696655273438	-0.0	-0.0	-0.0	-0.0	-0.0	-0.0	35054.234375	4391.0322265625	-1643.39111328125
0.001	-0.0	-0.0	-0.0	3.632727861404419	23.92631721496582	-475.4949951171875	-2.789276599884033	-25.08335876464844	-140.845703125	-0.0	-0.0	-0.0	-0.0	-0.0	-0.0	34987.0703125	4570.564453125	-1639.8770751953125
0.0015	-0.0	-0.0	-0.0	3.2508373260498047	23.81918334960937	-476.6517333984375	-3.001875877380371	-24.84309196472168	-143.0693817138672	-0.0	-0.0	-0.0	-0.0	-0.0	-0.0	35162.6796875	4482.22119140625	-1700.5577392578125
0.002	-0.0	-0.0	-0.0	3.493256092071533	24.026142120361328	-476.0309753417969	-3.0410518646240234	-24.81839370727539	-142.80300903320312	-0.0	-0.0	-0.0	-0.0	-0.0	-0.0	35171.640625	4380.01318359375	-1623.3460693359375
0.0025	-0.0	-0.0	-0.0	3.54331111907959	23.91468811035156	-477.2010498046875	-3.0799381732940674	-25.273834228515625	-142.95584106445312	-0.0	-0.0	-0.0	-0.0	-0.0	-0.0	35196.8515625	4510.6708984375	-1717.0908203125
0.003	-0.0	-0.0	-0.0	3.298713207244873	23.886947631835938	-478.359375	-3.0548338890075684	-24.94295310974121	-141.25421142578125	-0.0	-0.0	-0.0	-0.0	-0.0	-0.0	35035.03515625	4420.80078125	-1521.3741455078125
0.0035	-0.0	-0.0	-0.0	3.339506149291992	23.74567604064941	-478.012451171875	-2.940938949584961	-25.13329124450684	-143.2508544921875	-0.0	-0.0	-0.0	-0.0	-0.0	-0.0	35273.765625	4444.0849609375	-1741.883544921875
0.004	-0.0	-0.0	-0.0	3.211578369140625	24.001371383666992	-476.0865478515625	-3.243877410888672	-25.32188606262207	-140.95274353027344	-0.0	-0.0	-0.0	-0.0	-0.0	-0.0	34951.375	4210.64013671875	-1704.0286865234375
0.0045000000000000005	-0.0	-0.0	-0.0	3.0201425552368164	23.696313858032227	-475.784912109375	-3.079650402069092	-25.03229713439941	-142.453857421875	-0.0	-0.0	-0.0	-0.0	-0.0	-0.0	35333.51953125	4403.3251953125	-1682.5274658203125
0.005	-0.0	-0.0	-0.0	3.2244298458099365	24.15458869934082	-475.98577880859375	-2.902174711227417	-24.7296199798584	-141.00660705566406	-0.0	-0.0	-0.0	-0.0	-0.0	-0.0	35108.0859375	4520.677734375	-1673.8343505859375
0.0055	-0.0	-0.0	-0.0	3.096841812133789	23.886947631835938	-475.5823059082031	-3.0921735763549805	-25.007631301879883	-140.70809936523438	-0.0	-0.0	-0.0	-0.0	-0.0	-0.0	34783.85546875	4493.57763671875	-1657.01123046875
0.006	-0.0	-0.0	-0.0	3.134763717651367	23.65752220153809	-475.5306701660156	-2.9777169227600098	-24.843713760375977	-141.6578369140625	-0.0	-0.0	-0.0	-0.0	-0.0	-0.0	35133.55859375	4433.97265625	-1724.58935546875
0.006500000000000001	-0.0	-0.0	-0.0	2.8803956508636475	23.9248046875	-474.5675048828125	-3.180354118347168	-24.94428825378418	-141.00515747070312	-0.0	-0.0	-0.0	-0.0	-0.0	-0.0	34997.34375	4314.46923828125	-1564.075439453125
0.007	-0.0	-0.0	-0.0	2.969688892364502	23.989824295043945	-475.787841796875	-2.9274559020996094	-24.995037078857425	-140.7142333984375	-0.0	-0.0	-0.0	-0.0	-0.0	-0.0	35122.98046875	4204.27099609375	-1699.281005859375
0.0075	-0.0	-0.0	-0.0	3.0331573486328125	23.65713882446289	-476.03125	-3.2172727584838867	-24.79481315612793	-142.9970703125	-0.0	-0.0	-0.0	-0.0	-0.0	-0.0	35018.2734375	4412.6552734375	-1572.212158203125
0.008	-0.0	-0.0	-0.0	3.0447702407836914	23.809419631958008	-475.0270385742188	-3.104877471923828	-25.12052345275879	-142.5549774169922	-0.0	-0.0	-0.0	-0.0	-0.0	-0.0	35214.75	4460.12841796875	-1708.0301513671875
0.0085	-0.0	-0.0	-0.0	2.8028390407562256	23.924226760864254	-473.9224853515625	-2.8417413234710693	-25.00637626647949	-143.4447021484375	-0.0	-0.0	-0.0	-0.0	-0.0	-0.0	35134.33203125	4548.01318359375	-1703.03125
0.009000000000000001	-0.0	-0.0	-0.0	2.587104797363281	23.60836601257324	-476.6313781738281	-3.093651056289673	-25.171680450439453	-141.71136474609375	-0.0	-0.0	-0.0	-0.0	-0.0	-0.0	35114.625	4642.4130859375	-1708.080810546875
0.0095	-0.0	-0.0	-0.0	3.018063545227051	23.95002555847168	-476.0268249511719	-3.308199644088745	-25.08335876464844	-142.30859375	-0.0	-0.0	-0.0	-0.0	-0.0	-0.0	35261.52734375	4616.1201171875	-1736.6007080078125
0.01	-0.0	-0.0	-0.0	2.891637086868286	24.15433883666992	-474.3206787109375	-3.0205979347229004	-24.995037078857425	-142.22439575195312	-0.0	-0.0	-0.0	-0.0	-0.0	-0.0	35218.03515625	4539.912109375	-1753.5909423828125
0.0105	-0.0	-0.0	-0.0	2.854736328125	23.650781631469727	-477.291748046875	-3.245654344558716	-25.39537239074707	-142.02117919921875	-0.0	-0.0	-0.0	-0.0	-0.0	-0.0	35201.28125	4455.3623046875	-1772.799072265625
0.011	-0.0	-0.0	-0.0	2.6396889686584477	23.582963943481445	-475.6293029785156	-3.5326805114746094	-25.358642578125	-141.46839904785156	-0.0	-0.0	-0.0	-0.0	-0.0	-0.0	35249.32421875	4549.00830078125	-1794.0628662109375
0.0115	-0.0	-0.0	-0.0	2.6864850521087646	23.735010147094727	-475.4844970703125	-3.3448400497436523	-25.197734832763672	-143.25515747070312	-0.0	-0.0	-0.0	-0.0	-0.0	-0.0	35389.078125	4604.392578125	-1783.28173828125
0.012	-0.0	-0.0	-0.0	2.9738337993621826	23.834163665771484	-475.4847717285156	-3.371009826660156	-25.5349178314209	-142.77841186523438	-0.0	-0.0	-0.0	-0.0	-0.0	-0.0	35159.94921875	4579.01953125	-1732.73974609375
0.0125	-0.0	-0.0	-0.0	2.7028143405914307	23.600147247314453	-476.0096435546875	-3.104877471923828	-24.78927993774414	-142.06634521484375	-0.0	-0.0	-0.0	-0.0	-0.0	-0.0	35292.1484375	4983.55419921875	-1779.5455322265625
0.013000000000000001	-0.0	-0.0	-0.0	2.989600419998169	23.74475860595703	-474.8840637207031	-3.495680809020996	-25.021297454833984	-142.453857421875	-0.0	-0.0	-0.0	-0.0	-0.0	-0.0	35298.16015625	4613.00927734375	-1818.347900390625
0.0135	-0.0	-0.0	-0.0	2.6763153076171875	23.744611740112305	-474.3206787109375	-3.3351950645446777	-25.216663360595703	-142.453857421875	-0.0	-0.0	-0.0	-0.0	-0.0	-0.0	35342.8046875	4639.22705078125	-1844.8154296875
0.014	-0.0	-0.0	-0.0	2.837125301361084	23.55710792541504	-474.6378479003906	-3.246640920639038	-25.410236358642575	-143.04776000976562	-0.0	-0.0	-0.0	-0.0	-0.0	-0.0	35432.8359375	4533.96923828125	-1877.59765625
0.0145	-0.0	-0.0	-0.0	2.613864660263061	23.699764251708984	-476.2984313964844	-3.0161666870117188	-25.50743293762207	-141.9294891357422	-0.0	-0.0	-0.0	-0.0	-0.0	-0.0	35325.28125	4773.16552734375	-1767.690673828125
0.015	-0.0	-0.0	-0.0	2.703157901763916	23.41447639465332	-475.27392578125	-3.2202510833740234	-25.11858940124512	-142.31459045410156	-0.0	-0.0	-0.0	-0.0	-0.0	-0.0	35462.6640625	4686.37646484375	-1841.841552734375
0.0155	-0.0	-0.0	-0.0	2.543170213699341	23.538936614990234	-476.8603515625	-3.309016227722168	-25.330245971679688	-142.66416931152344	-0.0	-0.0	-0.0	-0.0	-0.0	-0.0	35415.0546875	4611.4775390625	-1850.81982421875
0.016	-0.0	-0.0	-0.0	2.4253060817718506	23.700382232666016	-476.4397583007813	-3.114957809448242	-25.418292999267575	-144.26536560058594	-0.0	-0.0	-0.0	-0.0	-0.0	-0.0	35467.08984375	4890.2529296875	-1904.376953125
0.0165	-0.0	-0.0	-0.0	2.2222001552581787	23.584476470947266	-475.0270385742188	-3.193588256835937	-25.26000213623047	-142.0408935546875	-0.0	-0.0	-0.0	-0.0	-0.0	-0.0	35286.51171875	4677.15087890625	-1862.26318359375
0.017	-0.0	-0.0	-0.0	2.2223641872406006	23.43340492248535	-476.0865478515625	-3.4945859909057617	-25.056554794311523	-142.8342742919922	-0.0	-0.0	-0.0	-0.0	-0.0	-0.0	35485.9375	4954.9619140625	-1797.69482421875
0.0175	-0.0	-0.0	-0.0	2.2999751567840576	24.0227108001709	-474.7814331054688	-3.301570177078247	-25.233125686645508	-141.93765258789062	-0.0	-0.0	-0.0	-0.0	-0.0	-0.0	35515.15625	4681.7841796875	-1909.8387451171875
0.018000000000000002	-0.0	-0.0	-0.0	2.366541624069214	24.231111526489254	-475.3801879882813	-3.309372663497925	-24.97553825378418	-142.77352905273438	-0.0	-0.0	-0.0	-0.0	-0.0	-0.0	35567.58203125	4744.6484375	-1900.6473388671875
0.0185	-0.0	-0.0	-0.0	2.3886542320251465	23.98335266113281	-474.1837158203125	-3.5828871726989746	-24.987741470336918	-143.39454650878906	-0.0	-0.0	-0.0	-0.0	-0.0	-0.0	35310.12109375	4836.3095703125	-1811.7806396484373
0.019	-0.0	-0.0	-0.0	2.511958122253418	23.303720474243164	-476.1144104003906	-3.548431396484375	-25.29414176940918	-143.07293701171875	-0.0	-0.0	-0.0	-0.0	-0.0	-0.0	35072.35546875	4950.72705078125	-1886.881591796875
0.0195	-0.0	-0.0	-0.0	2.230262756347656	23.46871757507324	-475.5432434082031	-3.528085947036743	-25.13764762878418	-142.10470581054688	-0.0	-0.0	-0.0	-0.0	-0.0	-0.0	35403.59375	4798.98681640625	-1786.4229736328125
0.02	-0.0	-0.0	-0.0	2.017663955688477	24.003570556640625	-474.7564086914063	-3.371009826660156	-24.91339874267578	-143.50131225585938	-0.0	-0.0	-0.0	-0.0	-0.0	-0.0	35412.484375	4665.1357421875	-1898.0841064453125
0.0205	-0.0	-0.0	-0.0	2.100627183914185	23.893354415893555	-474.7831115722656	-3.3161795139312744	-25.07692146301269	-142.18716430664062	-0.0	-0.0	-0.0	-0.0	-0.0	-0.0	35126.49609375	4971.900390625	-1823.0777587890625
0.021	-0.0	-0.0	-0.0	2.196359634399414	23.770187377929688	-475.818115234375	-3.166118860244751	-25.06228446960449	-143.04405212402344	-0.0	-0.0	-0.0	-0.0	-0.0	-0.0	35263.22265625	4573.2109375	-1870.3740234375
0.021500000000000002	-0.0	-0.0	-0.0	2.291746139526367	23.76409149169922	-475.16064453125	-3.6707682609558105	-25.03457260131836	-142.02024841308594	-0.0	-0.0	-0.0	-0.0	-0.0	-0.0	35240.57421875	4795.794921875	-1985.2158203125
0.022	-0.0	-0.0	-0.0	2.5813114643096924	23.168115615844727	-476.2425231933594	-3.2212088108062744	-24.851716995239254	-142.82603454589844	-0.0	-0.0	-0.0	-0.0	-0.0	-0.0	35210.53515625	5039.322265625	-1907.1019287109373
0.0225	-0.0	-0.0	-0.0	1.9347707033157349	23.123573303222656	-475.6230773925781	-3.309973955154419	-24.81839370727539	-142.56277465820312	-0.0	-0.0	-0.0	-0.0	-0.0	-0.0	35237.56640625	4910.43798828125	-2016.558349609375
